<?xml version="1.0" encoding="utf-8"?>
<!-- Generator: Adobe Illustrator 17.1.0, SVG Export Plug-In . SVG Version: 6.00 Build 0)  -->
<!DOCTYPE svg PUBLIC "-//W3C//DTD SVG 1.1//EN" "http://www.w3.org/Graphics/SVG/1.1/DTD/svg11.dtd">
<svg version="1.1" id="Layer_1" xmlns="http://www.w3.org/2000/svg" xmlns:xlink="http://www.w3.org/1999/xlink" x="0px" y="0px"
	 viewBox="0 0 100 100" enable-background="new 68 328.9 474 194.4" xml:space="preserve" width="100px" height="100px">
<path d="M511.8,488.1c6.4-8.6,11.3-18.2,14.9-28.6c3.5-10.4,5.3-21.3,5.3-32.6c0-12.2-2.1-24.2-6.2-35.9
	c-4.1-11.7-10.1-22.1-17.7-31.3c-7.7-9.2-16.9-16.6-27.7-22.3c-10.8-5.7-22.7-8.5-35.9-8.5c-12.9,0-24.8,2.7-35.6,8
	c-10.8,5.3-20.2,12.5-28.1,21.4c-6.3,7.1-11.4,15.1-15.5,23.9c0-0.9,0.1-1.9,0.1-2.8c0-6.1-1-12.1-3-17.9c-2-5.8-4.8-11.1-8.4-15.6
	c-3.6-4.6-8-8.3-13.2-11.2s-11-4.3-17.3-4.3H216.8v112.4c-0.5-0.8-1-1.5-1.6-2.2c-6.1-8-14.5-13.6-25-16.9
	c8.8-4.1,15.4-10.3,19.8-18.5c4.4-8.2,6.6-16.8,6.6-25.8c0-6.1-1-12.1-3-17.9c-2-5.8-4.8-11.1-8.4-15.6c-3.6-4.6-8-8.3-13.2-11.2
	c-5.2-2.9-11-4.3-17.3-4.3H68v67.2c2.8,0.7,5.6,1.6,8.4,2.6c10,3.6,18.6,9.4,28.1,13.8c2.9,1.3,6,1.6,9,2.5c6,1.8,10.3,5.6,14.1,9.9
	c3.4,3.8,5.9,8.1,7.9,12.8c2.2,5.2,6.3,9.2,10.3,13.2c1.2,1.2,2.7,2.4,3.6,3.8c1.4,2.3,3.1,1.4,4.6,0.6c4.2-2.3,8.5-4.2,13.2-5.4
	c1.1-0.3,2.1-0.7,2.7-1.5c0.6-0.4,1.2-0.8,1.5-1.4c1-1.4,1.7-2.9,2.2-4.4c1.8,0.2,0.4,1.5,1,2.2c-0.6,3.1-2.8,5.3-5.2,7.4
	c-2.2,0.8-3,2.6-4.1,4.4c-1.4,2.3-2.9,4.6-4.9,6.6c-4,4-4.5,9.2-5.3,14.2c-0.2,1.4-0.1,2.7-1,3.9c-0.9,1.3,1.1,15.6,1.3,17.5
	c0.1-0.3,0.3-0.1,0.8,1.4c0.8,2.4,1.5,5,3.2,7.1c1.5,1.9,1.2,2.2-1.4,2.7c-2.3,0.4-4.6,1-6.9,1.6c-2.3,0.6-4.2,0.3-5.6-1.6
	c-1-1.4-2.5-2.2-4-3.1c-8.1-4.5-16.3-8.9-23.6-14.5c-1-0.8-2.1-2.1-3.4-1.7c-1.5,0.6-0.5,2.2-0.5,3.3c0,6.2,2,11.7,7.8,16.3
	c-3.6,0.2-6.7,0.5-9.8,0.4c-1.4-0.1-1.7-1.8-2.3-2.8c-0.6-1-0.8-2.1-1.2-3.2c-0.3-0.6-0.4-1.6-1.3-1.5s-1.1,0.9-1.1,1.6
	c0,0.4-0.1,0.7-0.2,1.6c-1.9-4.8-1.5-9.3-1.1-13.8c0.2-2.1,0.3-4.1-0.3-6.1c-0.8-2.5-1.4-5-1.9-7.6s-2-4.8-5.2-5.7
	c-1.5-0.4-2.9-1.3-4.3-1.9c-1-0.4-1.9-0.5-1.5,1c0.1,0.5-0.1,1.1,0.1,1.6c2.6,5.8,1.1,11.6,0,17.4c-0.7,3.6,0.3,7.2,0.7,10.8
	c0.3,3.4,1.2,6.8,2,10.1c0.6,2.3-1.6,0.8-2.2,1.4c-2.7,0-5.5-0.1-8.2-0.1c-0.7-0.6-0.6-1.4-0.7-2.1c-0.1-0.7-0.4-1.6-1.2-1.6
	c-2.6-0.1-1.7-1.4-1.4-2.7c0.7-3.9,1.7-7.9,2-11.9c0.3-5.2-1.2-10.2-3.1-15.1c-1.9-4.9-3.9-9.8-4.8-14.9c-0.2-1.3-1.4-1.8-2.3-1.7
	c-1.6,0.2-3-0.3-4.4-0.8v57.9h90.4c9,0,17.5-0.9,25.5-2.8c8-1.9,15.1-4.8,21.1-8.8c4.7-3.1,8.6-6.9,11.8-11.4V522h90.4
	c9,0,17.5-0.9,25.5-2.8c8-1.9,15.1-4.8,21.1-8.8c6-4,10.8-9,14.2-15.2c2-3.7,3.4-7.7,4.3-12.2c2.3,3.6,4.9,7.1,7.6,10.3
	c7.7,9.1,16.9,16.4,27.7,21.8c10.8,5.5,22.7,8.2,35.9,8.2c7.8,0,15.2-1,22.4-3.1c7.2-2.1,13.8-4.9,19.8-8.5l9.1,10.2H542
	L511.8,488.1z M339,423.6c7.8-3.7,13.9-9,18.3-15.9c-1,5.9-1.6,11.9-1.6,18c0,2.2,0.1,4.4,0.2,6.5
	C351.1,428.5,345.4,425.6,339,423.6z"/>
</svg>
