<svg xmlns="http://www.w3.org/2000/svg" xmlns:xlink="http://www.w3.org/1999/xlink" version="1.1" x="0px" y="0px" viewBox="34 107 527 527" enable-background="new 34 107 527 527" xml:space="preserve"><rect x="34" y="107" fill="#D22631" width="527" height="527"/><path fill="#FFFFFF" d="M446 586.8c5.7-7.6 10-16.1 13.2-25.3c3.1-9.2 4.7-18.9 4.7-28.9c0-10.8-1.8-21.4-5.5-31.8 c-3.7-10.3-8.9-19.6-15.7-27.7c-6.8-8.1-15-14.7-24.5-19.7c-9.6-5-20.1-7.5-31.7-7.5c-11.5 0-22 2.4-31.5 7 c-9.6 4.7-17.8 11-24.9 19c-5.6 6.3-10.1 13.3-13.7 21.1c0-0.8 0.1-1.7 0.1-2.5c0-5.4-0.9-10.7-2.6-15.9c-1.8-5.2-4.2-9.8-7.4-13.8 c-3.2-4.1-7.1-7.4-11.7-9.9s-9.7-3.8-15.4-3.8H185v99.5c-0.4-0.7-0.9-1.3-1.4-2c-5.4-7.1-12.8-12.1-22.1-14.9 c7.8-3.7 13.6-9.1 17.5-16.4c3.9-7.2 5.8-14.8 5.8-22.8c0-5.4-0.9-10.7-2.6-15.9c-1.8-5.2-4.2-9.8-7.4-13.8 c-3.2-4.1-7.1-7.4-11.7-9.9c-4.6-2.5-9.7-3.8-15.4-3.8H53.1v59.5c2.5 0.6 5 1.4 7.4 2.3c8.8 3.2 16.5 8.4 24.9 12.2 c2.5 1.2 5.3 1.4 8 2.2c5.3 1.6 9.1 5 12.5 8.8c3.1 3.4 5.2 7.2 7 11.3c1.9 4.6 5.5 8.1 9.1 11.7c1.1 1.1 2.4 2.1 3.2 3.4 c1.2 2 2.7 1.2 4.1 0.5c3.7-2 7.5-3.7 11.7-4.8c0.9-0.3 1.8-0.6 2.4-1.3c0.6-0.3 1.1-0.7 1.3-1.3c0.9-1.2 1.5-2.5 2-3.9 c1.6 0.2 0.4 1.4 0.9 1.9c-0.5 2.8-2.5 4.7-4.6 6.5c-1.9 0.7-2.7 2.3-3.6 3.9c-1.2 2.1-2.5 4.1-4.3 5.9c-3.5 3.6-4 8.1-4.7 12.5 c-0.2 1.2-0.1 2.4-0.9 3.5c-0.8 1.1 1 13.8 1.1 15.5c0.1-0.2 0.3-0.1 0.7 1.2c0.7 2.1 1.3 4.4 2.9 6.3c1.3 1.7 1.1 2-1.2 2.4 c-2 0.4-4.1 0.9-6.1 1.4c-2 0.5-3.7 0.3-4.9-1.5c-0.9-1.2-2.2-1.9-3.6-2.7c-7.2-4-14.4-7.9-20.9-12.8c-0.9-0.7-1.9-1.9-3-1.5 c-1.3 0.5-0.4 1.9-0.4 3c0 5.5 1.8 10.3 6.9 14.4c-3.2 0.2-5.9 0.5-8.6 0.3c-1.2-0.1-1.5-1.6-2-2.5c-0.5-0.9-0.7-1.9-1.1-2.8 c-0.2-0.5-0.3-1.4-1.2-1.3c-0.8 0.1-0.9 0.8-1 1.4c0 0.3-0.1 0.7-0.2 1.4c-1.7-4.3-1.3-8.3-1-12.2c0.2-1.9 0.3-3.6-0.2-5.4 c-0.7-2.2-1.3-4.4-1.7-6.7c-0.4-2.3-1.8-4.3-4.6-5c-1.4-0.4-2.5-1.2-3.8-1.7c-0.9-0.4-1.7-0.5-1.4 0.9c0.1 0.5-0.1 1 0.1 1.4 c2.3 5.1 0.9 10.2 0 15.4c-0.6 3.1 0.3 6.4 0.6 9.5c0.3 3 1.1 6 1.8 9c0.5 2-1.4 0.7-1.9 1.3c-2.4 0-4.8-0.1-7.3-0.1 c-0.6-0.5-0.5-1.2-0.6-1.9c-0.1-0.6-0.3-1.4-1.1-1.4c-2.3-0.1-1.5-1.3-1.3-2.4c0.7-3.5 1.5-7 1.7-10.5c0.3-4.6-1.1-9.1-2.8-13.4 c-1.7-4.3-3.4-8.6-4.3-13.2c-0.2-1.2-1.2-1.6-2-1.5c-1.4 0.1-2.7-0.2-3.9-0.7v51.3h80c7.9 0 15.5-0.8 22.6-2.5 c7.1-1.7 13.3-4.3 18.7-7.8c4.2-2.7 7.7-6.1 10.4-10v20.3h80c7.9 0 15.5-0.8 22.6-2.5c7.1-1.7 13.3-4.3 18.7-7.8 c5.3-3.5 9.5-8 12.6-13.5c1.8-3.2 3.1-6.8 3.8-10.8c2.1 3.2 4.3 6.3 6.8 9.2c6.8 8 15 14.5 24.5 19.3c9.5 4.9 20.1 7.3 31.7 7.3 c6.9 0 13.5-0.9 19.8-2.7s12.2-4.3 17.5-7.5l8 9.1h41.7L446 586.8z M293 529.7c6.9-3.3 12.3-8 16.2-14.1c-0.9 5.2-1.4 10.6-1.4 16 c0 1.9 0.1 3.9 0.2 5.8C303.7 534 298.7 531.5 293 529.7z"/></svg>